<svg version="1.1" xmlns="http://www.w3.org/2000/svg" viewBox="0 0 1584.4164576057344 943.9323780063539" width="3168.832915211469" height="1887.8647560127079">
  <!-- svg-source:excalidraw -->
  
  <defs>
    <style>
      @font-face {
        font-family: "Virgil";
        src: url("https://excalidraw.com/Virgil.woff2");
      }
      @font-face {
        font-family: "Cascadia";
        src: url("https://excalidraw.com/Cascadia.woff2");
      }
    </style>
  </defs>
  <rect x="0" y="0" width="1584.4164576057344" height="943.9323780063539" fill="#ffffff"></rect><g stroke-linecap="round" transform="translate(216.22639412917192 199.46442146338518) rotate(0 92.18515014648438 48.955291748046875)"><path d="M0.1 -1.79 C46.92 1.34, 91.5 1.34, 185.72 1.84 M0.34 -0.45 C68.9 -0.02, 137.01 -0.92, 183.6 -0.9 M184.09 1.58 C186.6 20.36, 185.22 43.42, 186.25 99.8 M183.6 0.48 C185.14 37.82, 184.34 74.19, 184.09 98.05 M182.64 97.03 C133.94 94.76, 80.19 97.62, 0.11 96.1 M184.99 98.05 C139.29 98.73, 93.4 99.45, 0.65 97.67 M-1.66 98.41 C-0.6 68.24, 0.07 38.52, 1.52 -1.61 M0.65 97.33 C0.35 76.64, 1.07 55.46, 0.12 0.72" stroke="#000000" stroke-width="1" fill="none"></path></g><g transform="translate(247.3489222053438 206.10916633643205) rotate(0 64 25)"><text x="64" y="18" font-family="Virgil, Segoe UI Emoji" font-size="20px" fill="#000000" text-anchor="middle" style="white-space: pre;" direction="ltr">DNS</text><text x="64" y="43" font-family="Virgil, Segoe UI Emoji" font-size="20px" fill="#000000" text-anchor="middle" style="white-space: pre;" direction="ltr">ControllerMgr</text></g><g stroke-linecap="round" transform="translate(743.7841639045625 77.2374011997133) rotate(0 92.18515014648438 48.955291748046875)"><path d="M1.8 0.44 C70.74 -1.02, 145.88 0.59, 183.67 -1.81 M-0.62 -0.89 C46.22 -0.04, 90.08 0.64, 183.58 0.72 M182.46 0.62 C186.36 36.14, 183.79 66.37, 183.37 97.23 M183.59 0.82 C185.45 20.82, 185.22 44.32, 184.93 98.29 M185.63 96.57 C125.79 101.51, 68.95 98.02, -1.51 99.25 M184.63 97.25 C127.49 96.36, 72.86 97.12, -0.24 98.62 M-0.34 99.69 C-0.61 68.01, 1.96 33.92, -0.54 -1.99 M0.88 97.81 C-0.1 60.21, 1.37 21.7, 0.42 0.04" stroke="#000000" stroke-width="1" fill="none"></path></g><g transform="translate(774.9066919807344 83.88214607276018) rotate(0 64 25)"><text x="64" y="18" font-family="Virgil, Segoe UI Emoji" font-size="20px" fill="#000000" text-anchor="middle" style="white-space: pre;" direction="ltr">DNS</text><text x="64" y="43" font-family="Virgil, Segoe UI Emoji" font-size="20px" fill="#000000" text-anchor="middle" style="white-space: pre;" direction="ltr">ControllerMgr</text></g><g stroke-linecap="round"><g transform="translate(594.2874903205782 9.044758987799241) rotate(0 -0.6231390023082213 429.59134979806845)"><path d="M-0.74 0.96 C-0.83 143.94, -0.79 715.27, -0.47 858.23" stroke="#000000" stroke-width="1.5" fill="none" stroke-dasharray="8 9"></path></g></g><g stroke-linecap="round"><g transform="translate(1178.6515039924532 14.115826797857835) rotate(0 1.1875863194137537 429.13567410074177)"><path d="M0.96 0.28 C1.29 143.14, 1.56 715.17, 1.32 857.99" stroke="#000000" stroke-width="1.5" fill="none" stroke-dasharray="8 9"></path></g></g><g stroke-linecap="round" transform="translate(1306.548415613547 362.43384285010393) rotate(0 133.93402099609375 62.314178466796875)"><path d="M-1.23 0.96 C63.58 -0.16, 124.27 0.7, 267.55 -1.14 M0.44 0.16 C101.07 -0.87, 200.61 -1.11, 267.16 -0.68 M267.44 -0.14 C268.1 50.23, 267.87 100.41, 268.7 125.88 M268.39 0.87 C267.92 37.66, 268.17 74.17, 267.34 125.26 M267.42 125.68 C188.05 124.43, 109.88 123.75, 1 125.51 M268.45 124.24 C192.48 123.39, 117.53 123.27, 0.06 125.1 M-1.34 126.12 C2.12 83.49, -1.35 43.46, -0.83 -0.95 M0.19 125.45 C1.66 77.98, 0.8 33.12, 0.97 -0.9" stroke="#e67700" stroke-width="1" fill="none"></path></g><g transform="translate(1369.1212305549532 400.0307361606508) rotate(0 67 12.5)"><text x="67" y="18" font-family="Virgil, Segoe UI Emoji" font-size="20px" fill="#e67700" text-anchor="middle" style="white-space: pre;" direction="ltr">AWS Route53</text></g><g transform="translate(230.84962410964067 26.65511055029924) rotate(0 70 12.5)"><text x="0" y="18" font-family="Virgil, Segoe UI Emoji" font-size="20px" fill="#000000" text-anchor="start" style="white-space: pre;" direction="ltr">Seed-1 Cluster</text></g><g transform="translate(755.7116236213594 24.539952469244554) rotate(0 74 12.5)"><text x="0" y="18" font-family="Virgil, Segoe UI Emoji" font-size="20px" fill="#000000" text-anchor="start" style="white-space: pre;" direction="ltr">"Proxy" Cluster</text></g><g stroke-linecap="round"><g transform="translate(10.664168787375047 461.25769538916643) rotate(0 292.54573989473283 1.05814846791327)"><path d="M-0.66 -0.89 C97.1 -0.39, 487.91 2.56, 585.76 3.01" stroke="#000000" stroke-width="1.5" fill="none" stroke-dasharray="8 9"></path></g></g><g transform="translate(229.14765877760942 491.2532398227602) rotate(0 74.5 12.5)"><text x="0" y="18" font-family="Virgil, Segoe UI Emoji" font-size="20px" fill="#000000" text-anchor="start" style="white-space: pre;" direction="ltr">Seed-2 Cluster</text></g><g stroke-linecap="round" transform="translate(216.59129281081255 539.9333240512758) rotate(0 92.18515014648438 48.955291748046875)"><path d="M0.08 0.77 C54.85 -1.19, 109.86 0.6, 186.2 -1.64 M-0.85 -0.58 C48.76 1.12, 97.75 1.89, 184.37 -0.45 M185.68 -0.17 C183.35 20.66, 183.85 44.39, 185.16 99.16 M183.78 0.73 C183.49 28.46, 183 55.9, 183.5 98.06 M185.37 98.35 C124.89 98.32, 67.12 96.53, 1.88 97.05 M184.12 98.59 C140.44 97.61, 96.5 97.93, -0.79 98.1 M-0.98 99.16 C0.26 70.74, 0.09 43.6, -1.66 -1.86 M0.04 97.22 C-1.26 63.95, 0.31 29.03, 0.82 0.81" stroke="#000000" stroke-width="1" fill="none"></path></g><g transform="translate(247.71382088698442 546.5780689243227) rotate(0 64 25)"><text x="64" y="18" font-family="Virgil, Segoe UI Emoji" font-size="20px" fill="#000000" text-anchor="middle" style="white-space: pre;" direction="ltr">DNS</text><text x="64" y="43" font-family="Virgil, Segoe UI Emoji" font-size="20px" fill="#000000" text-anchor="middle" style="white-space: pre;" direction="ltr">ControllerMgr</text></g><g stroke-linecap="round" transform="translate(644.2053980354219 303.7303211215883) rotate(0 178.9486083984375 104.28929138183594)"><path d="M52.14 0 M52.14 0 C111.94 -4.69, 170.7 -4.37, 305.75 0 M52.14 0 C125.63 -0.21, 197.34 -1.61, 305.75 0 M305.75 0 C339.85 -1.22, 361.36 14.14, 357.9 52.14 M305.75 0 C343.54 -2.46, 356.73 13.95, 357.9 52.14 M357.9 52.14 C354.87 91.54, 359.66 132.88, 357.9 156.43 M357.9 52.14 C360.84 89.84, 359.05 125, 357.9 156.43 M357.9 156.43 C357.75 194.7, 342.4 207.67, 305.75 208.58 M357.9 156.43 C358.25 190.87, 341.6 208.25, 305.75 208.58 M305.75 208.58 C248.6 203.21, 192.73 206.64, 52.14 208.58 M305.75 208.58 C210.61 208.26, 117.42 209.82, 52.14 208.58 M52.14 208.58 C14.2 212.57, -0.59 188.22, 0 156.43 M52.14 208.58 C19.85 206.65, 2.45 191.18, 0 156.43 M0 156.43 C-1.49 126.41, 2.33 104.57, 0 52.14 M0 156.43 C-2.34 134.3, -3.38 109.91, 0 52.14 M0 52.14 C-3.03 19.3, 17.81 1.17, 52.14 0 M0 52.14 C-2.26 16.62, 19.46 -3.83, 52.14 0" stroke="#1864ab" stroke-width="1" fill="none"></path></g><g transform="translate(676.3417505744844 308.9378101352602) rotate(0 59.5 12.5)"><text x="0" y="18" font-family="Virgil, Segoe UI Emoji" font-size="20px" fill="#1864ab" text-anchor="start" style="white-space: pre;" direction="ltr">DNSProvider</text></g><g transform="translate(676.7770533088594 341.0669605258852) rotate(0 139.5 80)"><text x="0" y="13" font-family="Helvetica, Segoe UI Emoji" font-size="14.535111860795453px" fill="#1864ab" text-anchor="start" style="white-space: pre;" direction="ltr">metadata:</text><text x="0" y="29" font-family="Helvetica, Segoe UI Emoji" font-size="14.535111860795453px" fill="#1864ab" text-anchor="start" style="white-space: pre;" direction="ltr">  annotations:</text><text x="0" y="45" font-family="Helvetica, Segoe UI Emoji" font-size="14.535111860795453px" fill="#1864ab" text-anchor="start" style="white-space: pre;" direction="ltr">    dns.gardener.cloud/remoteAccess: "true"</text><text x="0" y="61" font-family="Helvetica, Segoe UI Emoji" font-size="14.535111860795453px" fill="#1864ab" text-anchor="start" style="white-space: pre;" direction="ltr">  name: bar</text><text x="0" y="77" font-family="Helvetica, Segoe UI Emoji" font-size="14.535111860795453px" fill="#1864ab" text-anchor="start" style="white-space: pre;" direction="ltr">  namespace: foo</text><text x="0" y="93" font-family="Helvetica, Segoe UI Emoji" font-size="14.535111860795453px" fill="#1864ab" text-anchor="start" style="white-space: pre;" direction="ltr">spec:</text><text x="0" y="109" font-family="Helvetica, Segoe UI Emoji" font-size="14.535111860795453px" fill="#1864ab" text-anchor="start" style="white-space: pre;" direction="ltr">  type: aws-route53</text><text x="0" y="125" font-family="Helvetica, Segoe UI Emoji" font-size="14.535111860795453px" fill="#1864ab" text-anchor="start" style="white-space: pre;" direction="ltr">  zone:</text><text x="0" y="141" font-family="Helvetica, Segoe UI Emoji" font-size="14.535111860795453px" fill="#1864ab" text-anchor="start" style="white-space: pre;" direction="ltr">     include: Z12345</text><text x="0" y="157" font-family="Helvetica, Segoe UI Emoji" font-size="14.535111860795453px" fill="#1864ab" text-anchor="start" style="white-space: pre;" direction="ltr">     exclude: Z88888</text></g><g stroke-linecap="round"><g transform="translate(938.2161402229219 170.8844071550742) rotate(0 179.39925260899145 91.38588223232131)"><path d="M1.52 -1.39 C61.24 29.34, 300.29 153.81, 359.9 184.16 M-1.1 4.03 C58.11 34.04, 298.07 150.53, 357.76 180.4" stroke="#364fc7" stroke-width="1" fill="none"></path></g><g transform="translate(938.2161402229219 170.8844071550742) rotate(0 179.39925260899145 91.38588223232131)"><path d="M325.95 177.42 C341.88 177.19, 347.63 182.72, 356.5 178.42 M326.31 178.19 C334.86 178.97, 339.25 176.82, 359.64 178.93" stroke="#364fc7" stroke-width="1" fill="none"></path></g><g transform="translate(938.2161402229219 170.8844071550742) rotate(0 179.39925260899145 91.38588223232131)"><path d="M335.02 159 C347.67 165.45, 350.19 177.55, 356.5 178.42 M335.38 159.78 C342.22 164.39, 344.78 165.96, 359.64 178.93" stroke="#364fc7" stroke-width="1" fill="none"></path></g></g><g stroke-linecap="round" transform="translate(79.9805140022188 650.768330765143) rotate(0 89.099365234375 49.68742370605469)"><path d="M24.84 0 M24.84 0 C66.54 0.88, 116.19 -0.47, 153.36 0 M24.84 0 C66.39 0.01, 107.65 -0.14, 153.36 0 M153.36 0 C173.52 1.91, 177.15 11.68, 178.2 24.84 M153.36 0 C165.61 -3.25, 175.8 11.03, 178.2 24.84 M178.2 24.84 C176.03 42.91, 178.88 51.8, 178.2 74.53 M178.2 24.84 C179.3 45.36, 180.08 64.87, 178.2 74.53 M178.2 74.53 C174.21 89.54, 167.13 101.6, 153.36 99.37 M178.2 74.53 C182.51 91.11, 170.11 96.67, 153.36 99.37 M153.36 99.37 C116.95 96.31, 76.04 95.74, 24.84 99.37 M153.36 99.37 C108.04 96.69, 67.32 99.88, 24.84 99.37 M24.84 99.37 C6.5 96.75, 1.26 93.34, 0 74.53 M24.84 99.37 C6.24 95.44, -3.52 88.48, 0 74.53 M0 74.53 C2.37 57.96, -2.95 42.08, 0 24.84 M0 74.53 C0.41 57.64, -2.14 43.4, 0 24.84 M0 24.84 C2.49 8.87, 10.87 -3.57, 24.84 0 M0 24.84 C3.23 8.87, 7.52 -1.57, 24.84 0" stroke="#5f3dc4" stroke-width="1" fill="none"></path></g><g transform="translate(107.48765511550005 660.2932636264711) rotate(0 59.5 12.5)"><text x="0" y="18" font-family="Virgil, Segoe UI Emoji" font-size="20px" fill="#5f3dc4" text-anchor="start" style="white-space: pre;" direction="ltr">DNSProvider</text></g><g transform="translate(107.92295784987505 692.1680805210024) rotate(0 49 27)"><text x="0" y="14" font-family="Helvetica, Segoe UI Emoji" font-size="16px" fill="#5f3dc4" text-anchor="start" style="white-space: pre;" direction="ltr">spec:</text><text x="0" y="32" font-family="Helvetica, Segoe UI Emoji" font-size="16px" fill="#5f3dc4" text-anchor="start" style="white-space: pre;" direction="ltr">  type: remote</text><text x="0" y="50" font-family="Helvetica, Segoe UI Emoji" font-size="16px" fill="#5f3dc4" text-anchor="start" style="white-space: pre;" direction="ltr"></text></g><g stroke-linecap="round" transform="translate(122.63948006667192 314.73775215186174) rotate(0 89.099365234375 49.68742370605469)"><path d="M24.84 0 M24.84 0 C54.05 -0.41, 90.7 -1.77, 153.36 0 M24.84 0 C56 -2.26, 90.83 0.02, 153.36 0 M153.36 0 C166.05 -1.59, 180.97 11.37, 178.2 24.84 M153.36 0 C172.53 -4.34, 178.79 12.63, 178.2 24.84 M178.2 24.84 C179.22 38.87, 182.54 49.07, 178.2 74.53 M178.2 24.84 C177.1 38.16, 177.11 49.43, 178.2 74.53 M178.2 74.53 C177.71 91.97, 167.54 96.38, 153.36 99.37 M178.2 74.53 C177.01 95.41, 169.56 103.54, 153.36 99.37 M153.36 99.37 C122.78 102.79, 89.02 104.2, 24.84 99.37 M153.36 99.37 C113.38 97.2, 74.44 96.08, 24.84 99.37 M24.84 99.37 C12.16 99.43, -2.73 89.5, 0 74.53 M24.84 99.37 C11.58 99.24, -4.36 86.97, 0 74.53 M0 74.53 C-1.67 61.1, -3.21 53.7, 0 24.84 M0 74.53 C2.38 54.41, 0.24 37.35, 0 24.84 M0 24.84 C3.29 8.26, 10.44 -2.72, 24.84 0 M0 24.84 C1.32 10.81, 4.07 1.08, 24.84 0" stroke="#5f3dc4" stroke-width="1" fill="none"></path></g><g transform="translate(150.14662117995317 324.26268501318987) rotate(0 59.5 12.5)"><text x="0" y="18" font-family="Virgil, Segoe UI Emoji" font-size="20px" fill="#5f3dc4" text-anchor="start" style="white-space: pre;" direction="ltr">DNSProvider</text></g><g transform="translate(150.58192391432817 356.1375019077211) rotate(0 49 27)"><text x="0" y="14" font-family="Helvetica, Segoe UI Emoji" font-size="16px" fill="#5f3dc4" text-anchor="start" style="white-space: pre;" direction="ltr">spec:</text><text x="0" y="32" font-family="Helvetica, Segoe UI Emoji" font-size="16px" fill="#5f3dc4" text-anchor="start" style="white-space: pre;" direction="ltr">  type: remote</text><text x="0" y="50" font-family="Helvetica, Segoe UI Emoji" font-size="16px" fill="#5f3dc4" text-anchor="start" style="white-space: pre;" direction="ltr"></text></g><g stroke-linecap="round" transform="translate(81.57850594557817 761.8815967563539) rotate(0 188.54803466796875 86.025390625)"><path d="M43.01 0 M43.01 0 C123.64 2.05, 200.21 1.46, 334.08 0 M43.01 0 C148.51 -3.88, 254.76 -3.62, 334.08 0 M334.08 0 C361.03 -3.58, 374.43 11.15, 377.1 43.01 M334.08 0 C360.89 2.66, 378.68 14.31, 377.1 43.01 M377.1 43.01 C376.96 61.83, 375.86 79.13, 377.1 129.04 M377.1 43.01 C378.82 72.95, 376.2 99.24, 377.1 129.04 M377.1 129.04 C374.37 154.05, 361.75 169.89, 334.08 172.05 M377.1 129.04 C375.47 160.18, 364.14 172.02, 334.08 172.05 M334.08 172.05 C257.44 171.01, 182.13 168.11, 43.01 172.05 M334.08 172.05 C240.19 169, 148.77 168.93, 43.01 172.05 M43.01 172.05 C17.38 172.94, 2.24 154.67, 0 129.04 M43.01 172.05 C15.99 170.02, -4.54 157.7, 0 129.04 M0 129.04 C0.68 101.47, 2.38 81.35, 0 43.01 M0 129.04 C0.88 111.3, -1.57 92.28, 0 43.01 M0 43.01 C-1.87 12.51, 18.21 -1.67, 43.01 0 M0 43.01 C2.68 14.87, 14.7 1.43, 43.01 0" stroke="#5f3dc4" stroke-width="1" fill="none"></path></g><g transform="translate(178.61057992018755 768.8834888461977) rotate(0 32 12.5)"><text x="32" y="18" font-family="Virgil, Segoe UI Emoji" font-size="20px" fill="#5f3dc4" text-anchor="middle" style="white-space: pre;" direction="ltr">Secret</text></g><g transform="translate(99.11610360182817 806.2940723422914) rotate(0 180 56)"><text x="0" y="13" font-family="Helvetica, Segoe UI Emoji" font-size="13.99666728670635px" fill="#5f3dc4" text-anchor="start" style="white-space: pre;" direction="ltr">data:</text><text x="0" y="29" font-family="Helvetica, Segoe UI Emoji" font-size="13.99666728670635px" fill="#5f3dc4" text-anchor="start" style="white-space: pre;" direction="ltr">  REMOTE_ENDPOINT: dns-proxy.somewhere.com:7777 </text><text x="0" y="45" font-family="Helvetica, Segoe UI Emoji" font-size="13.99666728670635px" fill="#5f3dc4" text-anchor="start" style="white-space: pre;" direction="ltr">  NAMESPACE: foo</text><text x="0" y="61" font-family="Helvetica, Segoe UI Emoji" font-size="13.99666728670635px" fill="#5f3dc4" text-anchor="start" style="white-space: pre;" direction="ltr">  SERVER_CA_CERT: ...</text><text x="0" y="77" font-family="Helvetica, Segoe UI Emoji" font-size="13.99666728670635px" fill="#5f3dc4" text-anchor="start" style="white-space: pre;" direction="ltr">  CLIENT_CERT: ...</text><text x="0" y="93" font-family="Helvetica, Segoe UI Emoji" font-size="13.99666728670635px" fill="#5f3dc4" text-anchor="start" style="white-space: pre;" direction="ltr">  CLIENT_KEY: ...</text><text x="0" y="109" font-family="Helvetica, Segoe UI Emoji" font-size="13.99666728670635px" fill="#5f3dc4" text-anchor="start" style="white-space: pre;" direction="ltr">  </text></g><g stroke-linecap="round" transform="translate(741.5077661994844 181.46886177100237) rotate(0 72.01397705078125 47.88285827636719)"><path d="M23.94 0 M23.94 0 C59.16 4.06, 91.23 -3.18, 120.09 0 M23.94 0 C56.29 0.62, 86.39 -2.07, 120.09 0 M120.09 0 C135.34 2.38, 142.7 4.67, 144.03 23.94 M120.09 0 C131.91 2.74, 148.62 6.1, 144.03 23.94 M144.03 23.94 C142.89 35.92, 141.08 47.03, 144.03 71.82 M144.03 23.94 C142.5 38.78, 143.65 54.45, 144.03 71.82 M144.03 71.82 C144.26 87.09, 136.47 95.05, 120.09 95.77 M144.03 71.82 C144.46 92.33, 136.62 95.92, 120.09 95.77 M120.09 95.77 C81.18 94.35, 45.5 94.34, 23.94 95.77 M120.09 95.77 C92.68 97.31, 68.99 98.27, 23.94 95.77 M23.94 95.77 C9.31 94.96, 3.99 87.62, 0 71.82 M23.94 95.77 C11.77 98.01, -2.67 89.1, 0 71.82 M0 71.82 C-3.96 52.81, 2.61 37, 0 23.94 M0 71.82 C-1.23 58.2, -2.14 44.21, 0 23.94 M0 23.94 C-2.9 10.33, 11.86 0.97, 23.94 0 M0 23.94 C0.04 6.75, 11.58 -2.84, 23.94 0" stroke="#343a40" stroke-width="1" fill="none"></path></g><g transform="translate(758.3153528694063 183.16602058447893) rotate(0 32 12.5)"><text x="32" y="18" font-family="Virgil, Segoe UI Emoji" font-size="20px" fill="#343a40" text-anchor="middle" style="white-space: pre;" direction="ltr">Secret</text></g><g transform="translate(756.3858179572969 217.16450996436174) rotate(0 57.97821044921875 31.339573215793905)"><text x="0" y="9.535829286317565" font-family="Helvetica, Segoe UI Emoji" font-size="10.966239480221029px" fill="#343a40" text-anchor="start" style="white-space: pre;" direction="ltr">data:</text><text x="0" y="22.07165857263513" font-family="Helvetica, Segoe UI Emoji" font-size="10.966239480221029px" fill="#343a40" text-anchor="start" style="white-space: pre;" direction="ltr">  CLIENT_CA_CERT: ...</text><text x="0" y="34.607487858952695" font-family="Helvetica, Segoe UI Emoji" font-size="10.966239480221029px" fill="#343a40" text-anchor="start" style="white-space: pre;" direction="ltr">  SERVER_CERT: ...</text><text x="0" y="47.14331714527026" font-family="Helvetica, Segoe UI Emoji" font-size="10.966239480221029px" fill="#343a40" text-anchor="start" style="white-space: pre;" direction="ltr">  SERVER_KEY: ...</text><text x="0" y="59.679146431587824" font-family="Helvetica, Segoe UI Emoji" font-size="10.966239480221029px" fill="#343a40" text-anchor="start" style="white-space: pre;" direction="ltr">  </text></g><g stroke-linecap="round"><g transform="translate(413.0705103401094 577.8276111606508) rotate(0 159.01031471025198 -212.4579794960176)"><path d="M2.26 2.6 C55.16 -68.45, 265.97 -356.12, 317.98 -427.52 M0.04 1.55 C52.72 -69.11, 265.05 -354.29, 316.99 -425.03" stroke="#5f3dc4" stroke-width="1" fill="none"></path></g><g transform="translate(413.0705103401094 577.8276111606508) rotate(0 159.01031471025198 -212.4579794960176)"><path d="M312.19 -392.97 C308.45 -407.64, 313.61 -415.57, 314.82 -422.94 M306.89 -397.53 C312.09 -403.01, 311.36 -412.57, 318.02 -423.34" stroke="#5f3dc4" stroke-width="1" fill="none"></path></g><g transform="translate(413.0705103401094 577.8276111606508) rotate(0 159.01031471025198 -212.4579794960176)"><path d="M295.69 -405.18 C297.16 -416.19, 307.63 -420.19, 314.82 -422.94 M290.4 -409.74 C300.27 -411.82, 303.98 -418.09, 318.02 -423.34" stroke="#5f3dc4" stroke-width="1" fill="none"></path></g></g><g stroke-linecap="round"><g transform="translate(421.4155420783907 236.99429817236955) rotate(0 151.09983783971518 -53.38201483211911)"><path d="M2.21 0.08 C52.34 -17.88, 252.15 -88.73, 302.23 -106.84 M-0.03 -2.35 C49.47 -19.88, 249.19 -85.79, 299.27 -103.12" stroke="#5f3dc4" stroke-width="1" fill="none"></path></g><g transform="translate(421.4155420783907 236.99429817236955) rotate(0 151.09983783971518 -53.38201483211911)"><path d="M275.95 -86.3 C284.2 -92.56, 289.94 -97.26, 300.98 -104.55 M276.72 -84.37 C283.5 -90.36, 291.41 -94.8, 298.96 -104.89" stroke="#5f3dc4" stroke-width="1" fill="none"></path></g><g transform="translate(421.4155420783907 236.99429817236955) rotate(0 151.09983783971518 -53.38201483211911)"><path d="M269.39 -105.74 C280.08 -105.27, 288.12 -103.14, 300.98 -104.55 M270.16 -103.82 C278.84 -103.88, 288.79 -102.27, 298.96 -104.89" stroke="#5f3dc4" stroke-width="1" fill="none"></path></g></g><g transform="translate(456.8452295783907 219.22318000830705) rotate(340.6759145645933 65 9)"><text x="0" y="14" font-family="Helvetica, Segoe UI Emoji" font-size="16px" fill="#5f3dc4" text-anchor="start" style="white-space: pre;" direction="ltr">GRPC/mTLS/TCP</text></g><g transform="translate(430.8439478401094 509.01733894385393) rotate(303.94204740425687 65 9)"><text x="0" y="14" font-family="Helvetica, Segoe UI Emoji" font-size="16px" fill="#5f3dc4" text-anchor="start" style="white-space: pre;" direction="ltr">GRPC/mTLS/TCP</text></g><g stroke-linecap="round" transform="translate(323.3583521369844 645.2534992221742) rotate(0 112.77056884765625 56.50956726074219)"><path d="M28.25 0 M28.25 0 C83.67 3.66, 141.89 1.79, 197.29 0 M28.25 0 C90.64 0.41, 156.9 -1.37, 197.29 0 M197.29 0 C219.07 -2.69, 225.13 9.81, 225.54 28.25 M197.29 0 C212.94 -2.29, 224.45 13.28, 225.54 28.25 M225.54 28.25 C226.13 48.98, 228.47 68.35, 225.54 84.76 M225.54 28.25 C227.51 42.02, 224.25 52.26, 225.54 84.76 M225.54 84.76 C223.39 105.63, 217.17 110.56, 197.29 113.02 M225.54 84.76 C228.68 99.19, 217.63 116.04, 197.29 113.02 M197.29 113.02 C128.6 108.02, 60.56 108.19, 28.25 113.02 M197.29 113.02 C163.45 112.87, 125.6 115.61, 28.25 113.02 M28.25 113.02 C12.32 114.67, -2.49 103.45, 0 84.76 M28.25 113.02 C11.32 109.65, -2.11 106.43, 0 84.76 M0 84.76 C-0.3 70.58, -0.31 55.91, 0 28.25 M0 84.76 C2.35 62.43, 1.89 40.09, 0 28.25 M0 28.25 C-3.5 10.81, 12.15 1.47, 28.25 0 M0 28.25 C-0.55 11.09, 13.12 -0.24, 28.25 0" stroke="#087f5b" stroke-width="1" fill="none"></path></g><g transform="translate(338.6969141487032 654.0457660678774) rotate(0 72 12.5)"><text x="0" y="18" font-family="Virgil, Segoe UI Emoji" font-size="20px" fill="#087f5b" text-anchor="start" style="white-space: pre;" direction="ltr">DNSProvider 2</text></g><g transform="translate(339.1322168830782 686.1749164585024) rotate(0 71.5 40)"><text x="0" y="13" font-family="Helvetica, Segoe UI Emoji" font-size="14.535111860795453px" fill="#087f5b" text-anchor="start" style="white-space: pre;" direction="ltr">spec:</text><text x="0" y="29" font-family="Helvetica, Segoe UI Emoji" font-size="14.535111860795453px" fill="#087f5b" text-anchor="start" style="white-space: pre;" direction="ltr">  type: aws-route53</text><text x="0" y="45" font-family="Helvetica, Segoe UI Emoji" font-size="14.535111860795453px" fill="#087f5b" text-anchor="start" style="white-space: pre;" direction="ltr">  zone:</text><text x="0" y="61" font-family="Helvetica, Segoe UI Emoji" font-size="14.535111860795453px" fill="#087f5b" text-anchor="start" style="white-space: pre;" direction="ltr">     include: ZAABBCC</text><text x="0" y="77" font-family="Helvetica, Segoe UI Emoji" font-size="14.535111860795453px" fill="#087f5b" text-anchor="start" style="white-space: pre;" direction="ltr">   </text></g><g stroke-linecap="round"><g transform="translate(156.9763636115938 762.7667896274477) rotate(0 -0.2465972900390625 -9.479827880859375)"><path d="M0 0 C-0.08 -3.16, -0.41 -15.8, -0.49 -18.96 M0 0 C-0.08 -3.16, -0.41 -15.8, -0.49 -18.96" stroke="#5f3dc4" stroke-width="4" fill="none"></path></g></g><g stroke-linecap="round"><g transform="translate(443.00847019339335 622.9601132298105) rotate(0 422.9254836180875 -75.15744394060943)"><path d="M-2.35 -0.6 C138.91 -25.55, 706.71 -125.04, 848.2 -149.72 M1.57 -3.39 C142.59 -28, 706.52 -123.21, 847.1 -146.95" stroke="#087f5b" stroke-width="1" fill="none"></path></g><g transform="translate(443.00847019339335 622.9601132298105) rotate(0 422.9254836180875 -75.15744394060943)"><path d="M820.16 -129.16 C827.14 -135.78, 837.06 -142.82, 845.03 -150.37 M820.02 -130.43 C828.34 -134.8, 833.5 -138.15, 847.2 -148.16" stroke="#087f5b" stroke-width="1" fill="none"></path></g><g transform="translate(443.00847019339335 622.9601132298105) rotate(0 422.9254836180875 -75.15744394060943)"><path d="M816.74 -149.39 C824.82 -149.45, 835.84 -149.99, 845.03 -150.37 M816.6 -150.67 C825.99 -150.59, 831.9 -149.53, 847.2 -148.16" stroke="#087f5b" stroke-width="1" fill="none"></path></g></g><g transform="translate(762.0084375862032 574.2284595493227) rotate(0 130.5 20)"><text x="0" y="14" font-family="Virgil, Segoe UI Emoji" font-size="16px" fill="#087f5b" text-anchor="start" style="white-space: pre;" direction="ltr">direct access still possible</text><text x="0" y="34" font-family="Virgil, Segoe UI Emoji" font-size="16px" fill="#087f5b" text-anchor="start" style="white-space: pre;" direction="ltr">for zones of other DNSProviders</text></g><g stroke-linecap="round" transform="translate(505.9359888557344 767.2316944126039) rotate(0 33.59515380859375 16.01409912109375)"><path d="M8.01 0 M8.01 0 C24.8 -3.4, 43.43 -0.33, 59.18 0 M8.01 0 C27.25 -0.96, 46.29 0.29, 59.18 0 M59.18 0 C63.61 2.14, 67.97 3.18, 67.19 8.01 M59.18 0 C65.05 0.15, 67.6 4.08, 67.19 8.01 M67.19 8.01 C67.01 15.5, 70.37 21.22, 67.19 24.02 M67.19 8.01 C66.74 15.12, 65.49 20.51, 67.19 24.02 M67.19 24.02 C70.85 31.58, 60.85 34.04, 59.18 32.03 M67.19 24.02 C70.04 25.86, 67.82 31.56, 59.18 32.03 M59.18 32.03 C44.97 34.26, 29.12 35.74, 8.01 32.03 M59.18 32.03 C43.14 32.12, 31.28 32.21, 8.01 32.03 M8.01 32.03 C5.21 34.04, 0.05 30.93, 0 24.02 M8.01 32.03 C2.52 29.5, -1.83 25.24, 0 24.02 M0 24.02 C-2.83 20.24, -1.49 12.67, 0 8.01 M0 24.02 C0.07 20.42, -1.33 14.79, 0 8.01 M0 8.01 C-0.53 0.41, 2.96 -0.87, 8.01 0 M0 8.01 C2.27 2.6, 4.6 -0.09, 8.01 0" stroke="#087f5b" stroke-width="1" fill="none"></path></g><g transform="translate(514.0311426643282 773.2457935336977) rotate(0 25.5 10)"><text x="25.5" y="14" font-family="Virgil, Segoe UI Emoji" font-size="16px" fill="#087f5b" text-anchor="middle" style="white-space: pre;" direction="ltr">Secret</text></g><g stroke-linecap="round" transform="translate(661.3042139533907 529.3582813266664) rotate(0 33.59515380859375 16.01409912109375)"><path d="M8.01 0 M8.01 0 C28.73 -2.14, 48.75 3.84, 59.18 0 M8.01 0 C29.65 0.94, 47.27 -0.32, 59.18 0 M59.18 0 C64.92 3.62, 67.44 4.92, 67.19 8.01 M59.18 0 C68.42 2.34, 70.71 -1.5, 67.19 8.01 M67.19 8.01 C66.63 13.5, 66.22 16.61, 67.19 24.02 M67.19 8.01 C66.14 12.14, 66.79 16.37, 67.19 24.02 M67.19 24.02 C64.23 25.4, 67.52 30.98, 59.18 32.03 M67.19 24.02 C71.2 29.41, 66.03 33.64, 59.18 32.03 M59.18 32.03 C43.24 35.1, 17.21 35.44, 8.01 32.03 M59.18 32.03 C45.57 34.94, 29.38 33.2, 8.01 32.03 M8.01 32.03 C-0.61 29.32, 2.59 25.7, 0 24.02 M8.01 32.03 C6.8 35.88, 1.1 27.23, 0 24.02 M0 24.02 C-1.75 20.13, 2.74 11.74, 0 8.01 M0 24.02 C-1.26 19.62, 1.13 16.75, 0 8.01 M0 8.01 C1.85 5.61, 3.05 3.75, 8.01 0 M0 8.01 C-2.73 6.55, 5.09 -3.98, 8.01 0" stroke="#1864ab" stroke-width="1" fill="none"></path></g><g transform="translate(669.3993677619844 535.3723804477602) rotate(0 25.5 10)"><text x="25.5" y="14" font-family="Virgil, Segoe UI Emoji" font-size="16px" fill="#1864ab" text-anchor="middle" style="white-space: pre;" direction="ltr">Secret</text></g><g stroke-linecap="round" transform="translate(124.34730477370317 420.02307624854143) rotate(0 33.59515380859375 16.01409912109375)"><path d="M8.01 0 M8.01 0 C19.15 2.09, 33.18 2.69, 59.18 0 M8.01 0 C23.15 0.25, 39.19 -1.44, 59.18 0 M59.18 0 C62.95 -1.06, 69.67 2.5, 67.19 8.01 M59.18 0 C66.18 2.85, 67.98 3.25, 67.19 8.01 M67.19 8.01 C69.1 12.1, 65.13 18.33, 67.19 24.02 M67.19 8.01 C65.66 14.92, 68.08 20.44, 67.19 24.02 M67.19 24.02 C66.5 32.29, 66 29.93, 59.18 32.03 M67.19 24.02 C66.85 28.48, 61.07 30.97, 59.18 32.03 M59.18 32.03 C44.28 31.27, 23.38 35.92, 8.01 32.03 M59.18 32.03 C45.7 29.87, 29.76 30.55, 8.01 32.03 M8.01 32.03 C5.73 33.13, 0.64 29.73, 0 24.02 M8.01 32.03 C0.48 36.6, -3.42 28.99, 0 24.02 M0 24.02 C1.59 17.69, 1.13 13.61, 0 8.01 M0 24.02 C0.53 19.36, -0.68 10.9, 0 8.01 M0 8.01 C1.76 3.99, 4.73 3.74, 8.01 0 M0 8.01 C-1.78 0.55, 7.19 1.29, 8.01 0" stroke="#5f3dc4" stroke-width="1" fill="none"></path></g><g transform="translate(132.44245858229692 426.0371753696352) rotate(0 25.5 10)"><text x="25.5" y="14" font-family="Virgil, Segoe UI Emoji" font-size="16px" fill="#5f3dc4" text-anchor="middle" style="white-space: pre;" direction="ltr">Secret</text></g></svg>